<svg xmlns="http://www.w3.org/2000/svg" width="25.676" height="47" viewBox="0 0 25.676 47"><defs><style>.a{fill:#e30613;}.b{fill:#fff;}.c{fill:#ffed00;}</style></defs><g transform="translate(-61 -12)"><path class="a" d="M81.236,110.375c-4.243,0-6.093,1.088-7.4,2.611-1.327-1.523-3.177-2.611-7.4-2.611-3.264,0-5.44-.827-5.44-4.787V81H86.676v24.588C86.676,109.548,84.5,110.375,81.236,110.375Z" transform="translate(0 -53.986)"/><path class="b" d="M126.5,183.7" transform="translate(-51.248 -134.339)"/><path class="b" d="M110.806,95.929,109,96.364a4.442,4.442,0,0,0,0-2l1.806.457-.457-1.719a4.732,4.732,0,0,0,2.067,0l-.457,1.741,1.806-.435a4.253,4.253,0,0,0,0,1.958l-1.806-.435.457,1.719h0a5.5,5.5,0,0,0-2.067,0Z" transform="translate(-37.556 -63.453)"/><g transform="translate(64.342 42.165)"><path class="b" d="M126.316,187.9a6.712,6.712,0,0,1-2.328.457,2.04,2.04,0,0,0,.566,1.654.426.426,0,0,1-.283.261c-.5.109-.805.174-.87.435a.6.6,0,0,1,.435.022.492.492,0,0,0-.3.413.507.507,0,0,1,.435,0,.445.445,0,0,0-.3.37h.805c.392,0,.631-.109,1-.109a8.264,8.264,0,0,0,1,.109c.348-.044.849-.522.2-1.98a.947.947,0,0,0,.479.065A3.676,3.676,0,0,1,126.316,187.9Z" transform="translate(-113.164 -179.79)"/><path class="b" d="M86.312,181.423a2.669,2.669,0,0,0,.849-.218.765.765,0,0,1-.413-.348c.131-.022.174-.022.3-.044a2.837,2.837,0,0,0-1.436-1.915,6.983,6.983,0,0,0-1.131.849c-.762.849-.413,1.284-1.262,2.285A2.234,2.234,0,0,0,82.7,183.1c.218-.2.3-.087.3-.087a1.6,1.6,0,0,0,0,.457.749.749,0,0,1,.348-.239.636.636,0,0,0,.152.37c.283-.457.914-.609,1.219-1,.283-.348.479-.7.827-.783.479-.131.783.087,1.11-.152C86.421,181.575,86.334,181.488,86.312,181.423Z" transform="translate(-81.32 -172.747)"/><path class="b" d="M82.5,151.624a.448.448,0,0,1,.044-.37,1.736,1.736,0,0,0-.675.2.516.516,0,0,1,.2-.326,4.8,4.8,0,0,0-.936.152c-.044-.326-.065-.5-.5-.609-.239-.065-.718-.109-.7.457-.065,0-.109.022-.152.022-.174-.5-.718-.283-.849-.218-.044.022-.261.152-.044.544a2.987,2.987,0,0,0-1.219,1.349c-.87.413-1.458.631-1.284,1.066.37.957.827,1.349,1.393,1.393a1.728,1.728,0,0,1,1.523.914.533.533,0,0,0,.152-.37,1.607,1.607,0,0,1,.3.479,1.07,1.07,0,0,0,.174-.37,3.551,3.551,0,0,1,2.742,3.2,3.435,3.435,0,0,0,.522,1.741.811.811,0,0,1-.522.392c-.653.131-1.262.261-1.393.653.131-.044.37-.044.413.044-.174.065-.3.152-.3.37a.462.462,0,0,1,.457.065.371.371,0,0,0-.3.283H82.5a7.691,7.691,0,0,0,.892-.109,4.864,4.864,0,0,1,.762.109c.2,0,.522,0,.718-.544a5.161,5.161,0,0,1,1-1.893.741.741,0,0,1-.326-.022,2.11,2.11,0,0,0,.544-.805.621.621,0,0,1-.283,0,2.184,2.184,0,0,0,.326-.762.592.592,0,0,1-.3,0,8.15,8.15,0,0,0,.479-1.044,3.32,3.32,0,0,1-.044.849,1.241,1.241,0,0,0,.283.022.74.74,0,0,1-.022.218,8.328,8.328,0,0,0,3.22-.653c.609,1.828.892,2.241,2.111,3.025-.087.218-.435.261-.631.326a.922.922,0,0,0-.609.479.36.36,0,0,1,.37.065c-.087.022-.2.152-.239.392a.506.506,0,0,1,.435.022.409.409,0,0,0-.218.326h1.153c.348,0,.544-.261.892-.348a3.774,3.774,0,0,0,.892-.174c.413-.174.37-.7.152-1.219a4.543,4.543,0,0,1-.522-1.175.468.468,0,0,1,.326.065,6.2,6.2,0,0,1-.239-3.329.476.476,0,0,1,.435.087,1.536,1.536,0,0,0-.174-.892.288.288,0,0,1,.261.044c.044-2.785-1-3.938-5.462-3.938H83.027c0-.2,0-.218.044-.3A1.2,1.2,0,0,0,82.5,151.624Z" transform="translate(-76.359 -150.63)"/></g><path class="c" d="M112.787,125.87l-.87-.653V125h-2.959c-.3,0-.957.044-.957.653v5c0,.5.609.653,1.088.653H113v-5.44Zm-3.721,0c-.653,0-.544-.435-.218-.435h2.72l.609.435Zm2.633,2.611h-.87v.87l.435.218V130l-.435-.218v.653h-.435v-.87l-.435-.218v-.435l.435.218v-.653h-.87v-.435h.87v-.435h-.435v-.435h.435v-.435h.435v.435h.435v.435h-.435v.435h.87Z" transform="translate(-36.773 -88.412)"/><g transform="translate(65.744 12)"><circle class="a" cx="0.762" cy="0.762" r="0.762" transform="translate(7.333 3.264)"/><path class="a" d="M114.566,13.719,113.5,14a2.4,2.4,0,0,0,0-1.24l1.066.326L114.283,12a2.4,2.4,0,0,0,1.24,0l-.3,1.088,1.11-.239a2.315,2.315,0,0,0,0,1.219l-1.11-.326.3,1.088h0a2.978,2.978,0,0,0-1.24,0Z" transform="translate(-106.82 -12)"/><path class="a" d="M98.989,36.286A3.26,3.26,0,0,0,95.442,33a5.058,5.058,0,0,0-3.025,1.088,5.371,5.371,0,0,1-1.088,4.569h-.87a5.371,5.371,0,0,1-1.088-4.569A5.058,5.058,0,0,0,86.347,33,3.26,3.26,0,0,0,82.8,36.286a5.1,5.1,0,0,0,.914,3.025c-.2.3-.283.435-.435.653a5.585,5.585,0,0,1,1.088,2.611H97.422a5.585,5.585,0,0,1,1.088-2.611c-.152-.218-.283-.435-.435-.653A5.1,5.1,0,0,0,98.989,36.286Z" transform="translate(-82.8 -28.431)"/><path class="a" d="M117.4,36h-1.523c-.544,2.176.326,4.352.762,4.352S117.943,38.176,117.4,36Z" transform="translate(-108.543 -30.778)"/><path class="b" d="M101.1,63.523c-.152-.479-.435-1.088-1.088-1.088a2.117,2.117,0,0,0-1.741,1.088,1.756,1.756,0,0,0-3.481,0,2.117,2.117,0,0,0-1.741-1.088c-.653,0-.936.609-1.088,1.088A2.641,2.641,0,0,0,90,63.088a4.709,4.709,0,0,1,.544,1.306h11.968a4.358,4.358,0,0,1,.544-1.306A2.641,2.641,0,0,0,101.1,63.523Z" transform="translate(-88.433 -51.12)"/></g></g></svg>